<svg xmlns="http://www.w3.org/2000/svg" width="375" viewBox="0 0 375 150" height="150" version="1.0"><g fill="#F0F"><g><g><path d="M 43.351562 -41.289062 L 10.320312 -41.289062 C 5.78125 -41.289062 2.0625 -37.570312 2.0625 -33.03125 L 2.0625 -24.773438 C 2.0625 -20.230469 5.78125 -16.515625 10.320312 -16.515625 L 35.09375 -16.515625 L 35.09375 -8.257812 L 2.0625 -8.257812 L 2.0625 0 L 35.09375 0 C 39.636719 0 43.351562 -3.714844 43.351562 -8.257812 L 43.351562 -16.515625 C 43.351562 -21.054688 39.636719 -24.773438 35.09375 -24.773438 L 10.320312 -24.773438 L 10.320312 -33.03125 L 43.351562 -33.03125 Z M 43.351562 -41.289062" transform="translate(54.508 68.725)"/></g></g></g><g fill="#F0F"><g><g><path d="M 35.09375 -41.289062 L 2.0625 -41.289062 L 2.0625 0 L 10.320312 0 L 10.320312 -16.515625 L 35.09375 -16.515625 C 39.636719 -16.515625 43.351562 -20.230469 43.351562 -24.773438 L 43.351562 -33.03125 C 43.351562 -37.570312 39.636719 -41.289062 35.09375 -41.289062 Z M 10.320312 -24.773438 L 10.320312 -33.03125 L 35.09375 -33.03125 L 35.09375 -24.773438 Z M 10.320312 -24.773438" transform="translate(108.076 68.725)"/></g></g></g><g fill="#F0F"><g><g><path d="M 10.320312 -41.289062 C 5.78125 -41.289062 2.0625 -37.570312 2.0625 -33.03125 L 2.0625 0 L 10.320312 0 L 10.320312 -16.515625 L 35.09375 -16.515625 L 35.09375 0 L 43.351562 0 L 43.351562 -33.03125 C 43.351562 -37.570312 39.636719 -41.289062 35.09375 -41.289062 Z M 10.320312 -33.03125 L 35.09375 -33.03125 L 35.09375 -24.773438 L 10.320312 -24.773438 Z M 10.320312 -33.03125" transform="translate(161.645 68.725)"/></g></g></g><g fill="#F0F"><g><g><path d="M 43.351562 0 L 43.351562 -8.257812 L 10.320312 -8.257812 L 10.320312 -33.03125 L 43.351562 -33.03125 L 43.351562 -41.289062 L 10.320312 -41.289062 C 5.78125 -41.289062 2.0625 -37.570312 2.0625 -33.03125 L 2.0625 -8.257812 C 2.0625 -3.714844 5.78125 0 10.320312 0 Z M 43.351562 0" transform="translate(215.214 68.725)"/></g></g></g><g fill="#F0F"><g><g><path d="M 43.351562 -41.289062 L 10.320312 -41.289062 C 5.78125 -41.289062 2.0625 -37.570312 2.0625 -33.03125 L 2.0625 -8.257812 C 2.0625 -3.714844 5.78125 0 10.320312 0 L 43.351562 0 L 43.351562 -8.257812 L 10.320312 -8.257812 L 10.320312 -16.515625 L 43.351562 -16.515625 L 43.351562 -24.773438 L 10.320312 -24.773438 L 10.320312 -33.03125 L 43.351562 -33.03125 Z M 43.351562 -41.289062" transform="translate(268.782 68.725)"/></g></g></g><g fill="#0FF"><g><g><path d="M 43.351562 -41.289062 L 10.320312 -41.289062 C 5.78125 -41.289062 2.0625 -37.570312 2.0625 -33.03125 L 2.0625 -24.773438 C 2.0625 -20.230469 5.78125 -16.515625 10.320312 -16.515625 L 35.09375 -16.515625 L 35.09375 -8.257812 L 2.0625 -8.257812 L 2.0625 0 L 35.09375 0 C 39.636719 0 43.351562 -3.714844 43.351562 -8.257812 L 43.351562 -16.515625 C 43.351562 -21.054688 39.636719 -24.773438 35.09375 -24.773438 L 10.320312 -24.773438 L 10.320312 -33.03125 L 43.351562 -33.03125 Z M 43.351562 -41.289062" transform="translate(60.794 70.177)"/></g></g></g><g fill="#0FF"><g><g><path d="M 35.09375 -41.289062 L 2.0625 -41.289062 L 2.0625 0 L 10.320312 0 L 10.320312 -16.515625 L 35.09375 -16.515625 C 39.636719 -16.515625 43.351562 -20.230469 43.351562 -24.773438 L 43.351562 -33.03125 C 43.351562 -37.570312 39.636719 -41.289062 35.09375 -41.289062 Z M 10.320312 -24.773438 L 10.320312 -33.03125 L 35.09375 -33.03125 L 35.09375 -24.773438 Z M 10.320312 -24.773438" transform="translate(114.363 70.177)"/></g></g></g><g fill="#0FF"><g><g><path d="M 10.320312 -41.289062 C 5.78125 -41.289062 2.0625 -37.570312 2.0625 -33.03125 L 2.0625 0 L 10.320312 0 L 10.320312 -16.515625 L 35.09375 -16.515625 L 35.09375 0 L 43.351562 0 L 43.351562 -33.03125 C 43.351562 -37.570312 39.636719 -41.289062 35.09375 -41.289062 Z M 10.320312 -33.03125 L 35.09375 -33.03125 L 35.09375 -24.773438 L 10.320312 -24.773438 Z M 10.320312 -33.03125" transform="translate(167.931 70.177)"/></g></g></g><g fill="#0FF"><g><g><path d="M 43.351562 0 L 43.351562 -8.257812 L 10.320312 -8.257812 L 10.320312 -33.03125 L 43.351562 -33.03125 L 43.351562 -41.289062 L 10.320312 -41.289062 C 5.78125 -41.289062 2.0625 -37.570312 2.0625 -33.03125 L 2.0625 -8.257812 C 2.0625 -3.714844 5.78125 0 10.320312 0 Z M 43.351562 0" transform="translate(221.5 70.177)"/></g></g></g><g fill="#0FF"><g><g><path d="M 43.351562 -41.289062 L 10.320312 -41.289062 C 5.78125 -41.289062 2.0625 -37.570312 2.0625 -33.03125 L 2.0625 -8.257812 C 2.0625 -3.714844 5.78125 0 10.320312 0 L 43.351562 0 L 43.351562 -8.257812 L 10.320312 -8.257812 L 10.320312 -16.515625 L 43.351562 -16.515625 L 43.351562 -24.773438 L 10.320312 -24.773438 L 10.320312 -33.03125 L 43.351562 -33.03125 Z M 43.351562 -41.289062" transform="translate(275.069 70.177)"/></g></g></g><g fill="#FFF"><g><g><path d="M 43.351562 -41.289062 L 10.320312 -41.289062 C 5.78125 -41.289062 2.0625 -37.570312 2.0625 -33.03125 L 2.0625 -24.773438 C 2.0625 -20.230469 5.78125 -16.515625 10.320312 -16.515625 L 35.09375 -16.515625 L 35.09375 -8.257812 L 2.0625 -8.257812 L 2.0625 0 L 35.09375 0 C 39.636719 0 43.351562 -3.714844 43.351562 -8.257812 L 43.351562 -16.515625 C 43.351562 -21.054688 39.636719 -24.773438 35.09375 -24.773438 L 10.320312 -24.773438 L 10.320312 -33.03125 L 43.351562 -33.03125 Z M 43.351562 -41.289062" transform="translate(57.65 69.451)"/></g></g></g><g fill="#FFF"><g><g><path d="M 35.09375 -41.289062 L 2.0625 -41.289062 L 2.0625 0 L 10.320312 0 L 10.320312 -16.515625 L 35.09375 -16.515625 C 39.636719 -16.515625 43.351562 -20.230469 43.351562 -24.773438 L 43.351562 -33.03125 C 43.351562 -37.570312 39.636719 -41.289062 35.09375 -41.289062 Z M 10.320312 -24.773438 L 10.320312 -33.03125 L 35.09375 -33.03125 L 35.09375 -24.773438 Z M 10.320312 -24.773438" transform="translate(111.22 69.451)"/></g></g></g><g fill="#FFF"><g><g><path d="M 10.320312 -41.289062 C 5.78125 -41.289062 2.0625 -37.570312 2.0625 -33.03125 L 2.0625 0 L 10.320312 0 L 10.320312 -16.515625 L 35.09375 -16.515625 L 35.09375 0 L 43.351562 0 L 43.351562 -33.03125 C 43.351562 -37.570312 39.636719 -41.289062 35.09375 -41.289062 Z M 10.320312 -33.03125 L 35.09375 -33.03125 L 35.09375 -24.773438 L 10.320312 -24.773438 Z M 10.320312 -33.03125" transform="translate(164.788 69.451)"/></g></g></g><g fill="#FFF"><g><g><path d="M 43.351562 0 L 43.351562 -8.257812 L 10.320312 -8.257812 L 10.320312 -33.03125 L 43.351562 -33.03125 L 43.351562 -41.289062 L 10.320312 -41.289062 C 5.78125 -41.289062 2.0625 -37.570312 2.0625 -33.03125 L 2.0625 -8.257812 C 2.0625 -3.714844 5.78125 0 10.320312 0 Z M 43.351562 0" transform="translate(218.357 69.451)"/></g></g></g><g fill="#FFF"><g><g><path d="M 43.351562 -41.289062 L 10.320312 -41.289062 C 5.78125 -41.289062 2.0625 -37.570312 2.0625 -33.03125 L 2.0625 -8.257812 C 2.0625 -3.714844 5.78125 0 10.320312 0 L 43.351562 0 L 43.351562 -8.257812 L 10.320312 -8.257812 L 10.320312 -16.515625 L 43.351562 -16.515625 L 43.351562 -24.773438 L 10.320312 -24.773438 L 10.320312 -33.03125 L 43.351562 -33.03125 Z M 43.351562 -41.289062" transform="translate(271.925 69.451)"/></g></g></g><g fill="#F0F"><g><g><path d="M 43.351562 -41.289062 L 10.320312 -41.289062 C 5.78125 -41.289062 2.0625 -37.570312 2.0625 -33.03125 L 2.0625 -24.773438 C 2.0625 -20.230469 5.78125 -16.515625 10.320312 -16.515625 L 35.09375 -16.515625 L 35.09375 -8.257812 L 2.0625 -8.257812 L 2.0625 0 L 35.09375 0 C 39.636719 0 43.351562 -3.714844 43.351562 -8.257812 L 43.351562 -16.515625 C 43.351562 -21.054688 39.636719 -24.773438 35.09375 -24.773438 L 10.320312 -24.773438 L 10.320312 -33.03125 L 43.351562 -33.03125 Z M 43.351562 -41.289062" transform="translate(.947 119.888)"/></g></g></g><g fill="#F0F"><g><g><path d="M 43.351562 -41.289062 L 2.0625 -41.289062 L 2.0625 -33.03125 L 18.578125 -33.03125 L 18.578125 0 L 26.835938 0 L 26.835938 -33.03125 L 43.351562 -33.03125 Z M 43.351562 -41.289062" transform="translate(54.516 119.888)"/></g></g></g><g fill="#F0F"><g><g><path d="M 10.320312 -41.289062 C 5.78125 -41.289062 2.0625 -37.570312 2.0625 -33.03125 L 2.0625 0 L 10.320312 0 L 10.320312 -16.515625 L 35.09375 -16.515625 L 35.09375 0 L 43.351562 0 L 43.351562 -33.03125 C 43.351562 -37.570312 39.636719 -41.289062 35.09375 -41.289062 Z M 10.320312 -33.03125 L 35.09375 -33.03125 L 35.09375 -24.773438 L 10.320312 -24.773438 Z M 10.320312 -33.03125" transform="translate(108.084 119.888)"/></g></g></g><g fill="#F0F"><g><g><path d="M 43.351562 -41.289062 L 10.320312 -41.289062 C 5.78125 -41.289062 2.0625 -37.570312 2.0625 -33.03125 L 2.0625 -8.257812 C 2.0625 -3.714844 5.78125 0 10.320312 0 L 35.09375 0 C 39.6875 0 43.351562 -3.765625 43.351562 -8.257812 L 43.351562 -24.773438 L 18.578125 -24.773438 L 18.578125 -16.515625 L 35.09375 -16.515625 L 35.09375 -8.257812 L 10.320312 -8.257812 L 10.320312 -33.03125 L 43.351562 -33.03125 Z M 43.351562 -41.289062" transform="translate(161.653 119.888)"/></g></g></g><g fill="#F0F"><g><g><path d="M 43.351562 -33.03125 C 43.351562 -37.570312 39.636719 -41.289062 35.09375 -41.289062 L 2.0625 -41.289062 L 2.0625 0 L 10.320312 0 L 10.320312 -16.515625 L 15.171875 -16.515625 L 30.449219 -1.238281 C 31.273438 -0.414062 32.308594 0 33.441406 0 L 43.351562 0 L 43.351562 -8.257812 L 35.09375 -8.257812 L 26.835938 -16.515625 L 35.09375 -16.515625 C 39.636719 -16.515625 43.351562 -20.230469 43.351562 -24.773438 Z M 35.09375 -33.03125 L 35.09375 -24.773438 L 10.320312 -24.773438 L 10.320312 -33.03125 Z M 35.09375 -33.03125" transform="translate(215.222 119.888)"/></g></g></g><g fill="#F0F"><g><g><path d="M 10.320312 -41.289062 C 5.78125 -41.289062 2.0625 -37.570312 2.0625 -33.03125 L 2.0625 0 L 10.320312 0 L 10.320312 -16.515625 L 35.09375 -16.515625 L 35.09375 0 L 43.351562 0 L 43.351562 -33.03125 C 43.351562 -37.570312 39.636719 -41.289062 35.09375 -41.289062 Z M 10.320312 -33.03125 L 35.09375 -33.03125 L 35.09375 -24.773438 L 10.320312 -24.773438 Z M 10.320312 -33.03125" transform="translate(268.79 119.888)"/></g></g></g><g fill="#F0F"><g><g><path d="M 10.320312 -41.289062 C 5.78125 -41.289062 2.0625 -37.570312 2.0625 -33.03125 L 2.0625 0 L 10.320312 0 L 10.320312 -33.03125 L 18.578125 -33.03125 L 18.578125 0 L 26.835938 0 L 26.835938 -33.03125 L 35.09375 -33.03125 L 35.09375 0 L 43.351562 0 L 43.351562 -33.03125 C 43.351562 -37.570312 39.636719 -41.289062 35.09375 -41.289062 Z M 10.320312 -41.289062" transform="translate(322.36 119.888)"/></g></g></g><g fill="#0FF"><g><g><path d="M 43.351562 -41.289062 L 10.320312 -41.289062 C 5.78125 -41.289062 2.0625 -37.570312 2.0625 -33.03125 L 2.0625 -24.773438 C 2.0625 -20.230469 5.78125 -16.515625 10.320312 -16.515625 L 35.09375 -16.515625 L 35.09375 -8.257812 L 2.0625 -8.257812 L 2.0625 0 L 35.09375 0 C 39.636719 0 43.351562 -3.714844 43.351562 -8.257812 L 43.351562 -16.515625 C 43.351562 -21.054688 39.636719 -24.773438 35.09375 -24.773438 L 10.320312 -24.773438 L 10.320312 -33.03125 L 43.351562 -33.03125 Z M 43.351562 -41.289062" transform="translate(7.233 121.34)"/></g></g></g><g fill="#0FF"><g><g><path d="M 43.351562 -41.289062 L 2.0625 -41.289062 L 2.0625 -33.03125 L 18.578125 -33.03125 L 18.578125 0 L 26.835938 0 L 26.835938 -33.03125 L 43.351562 -33.03125 Z M 43.351562 -41.289062" transform="translate(60.802 121.34)"/></g></g></g><g fill="#0FF"><g><g><path d="M 10.320312 -41.289062 C 5.78125 -41.289062 2.0625 -37.570312 2.0625 -33.03125 L 2.0625 0 L 10.320312 0 L 10.320312 -16.515625 L 35.09375 -16.515625 L 35.09375 0 L 43.351562 0 L 43.351562 -33.03125 C 43.351562 -37.570312 39.636719 -41.289062 35.09375 -41.289062 Z M 10.320312 -33.03125 L 35.09375 -33.03125 L 35.09375 -24.773438 L 10.320312 -24.773438 Z M 10.320312 -33.03125" transform="translate(114.37 121.34)"/></g></g></g><g fill="#0FF"><g><g><path d="M 43.351562 -41.289062 L 10.320312 -41.289062 C 5.78125 -41.289062 2.0625 -37.570312 2.0625 -33.03125 L 2.0625 -8.257812 C 2.0625 -3.714844 5.78125 0 10.320312 0 L 35.09375 0 C 39.6875 0 43.351562 -3.765625 43.351562 -8.257812 L 43.351562 -24.773438 L 18.578125 -24.773438 L 18.578125 -16.515625 L 35.09375 -16.515625 L 35.09375 -8.257812 L 10.320312 -8.257812 L 10.320312 -33.03125 L 43.351562 -33.03125 Z M 43.351562 -41.289062" transform="translate(167.94 121.34)"/></g></g></g><g fill="#0FF"><g><g><path d="M 43.351562 -33.03125 C 43.351562 -37.570312 39.636719 -41.289062 35.09375 -41.289062 L 2.0625 -41.289062 L 2.0625 0 L 10.320312 0 L 10.320312 -16.515625 L 15.171875 -16.515625 L 30.449219 -1.238281 C 31.273438 -0.414062 32.308594 0 33.441406 0 L 43.351562 0 L 43.351562 -8.257812 L 35.09375 -8.257812 L 26.835938 -16.515625 L 35.09375 -16.515625 C 39.636719 -16.515625 43.351562 -20.230469 43.351562 -24.773438 Z M 35.09375 -33.03125 L 35.09375 -24.773438 L 10.320312 -24.773438 L 10.320312 -33.03125 Z M 35.09375 -33.03125" transform="translate(221.508 121.34)"/></g></g></g><g fill="#0FF"><g><g><path d="M 10.320312 -41.289062 C 5.78125 -41.289062 2.0625 -37.570312 2.0625 -33.03125 L 2.0625 0 L 10.320312 0 L 10.320312 -16.515625 L 35.09375 -16.515625 L 35.09375 0 L 43.351562 0 L 43.351562 -33.03125 C 43.351562 -37.570312 39.636719 -41.289062 35.09375 -41.289062 Z M 10.320312 -33.03125 L 35.09375 -33.03125 L 35.09375 -24.773438 L 10.320312 -24.773438 Z M 10.320312 -33.03125" transform="translate(275.077 121.34)"/></g></g></g><g fill="#0FF"><g><g><path d="M 10.320312 -41.289062 C 5.78125 -41.289062 2.0625 -37.570312 2.0625 -33.03125 L 2.0625 0 L 10.320312 0 L 10.320312 -33.03125 L 18.578125 -33.03125 L 18.578125 0 L 26.835938 0 L 26.835938 -33.03125 L 35.09375 -33.03125 L 35.09375 0 L 43.351562 0 L 43.351562 -33.03125 C 43.351562 -37.570312 39.636719 -41.289062 35.09375 -41.289062 Z M 10.320312 -41.289062" transform="translate(328.645 121.34)"/></g></g></g><g fill="#FFF"><g><g><path d="M 43.351562 -41.289062 L 10.320312 -41.289062 C 5.78125 -41.289062 2.0625 -37.570312 2.0625 -33.03125 L 2.0625 -24.773438 C 2.0625 -20.230469 5.78125 -16.515625 10.320312 -16.515625 L 35.09375 -16.515625 L 35.09375 -8.257812 L 2.0625 -8.257812 L 2.0625 0 L 35.09375 0 C 39.636719 0 43.351562 -3.714844 43.351562 -8.257812 L 43.351562 -16.515625 C 43.351562 -21.054688 39.636719 -24.773438 35.09375 -24.773438 L 10.320312 -24.773438 L 10.320312 -33.03125 L 43.351562 -33.03125 Z M 43.351562 -41.289062" transform="translate(4.09 120.613)"/></g></g></g><g fill="#FFF"><g><g><path d="M 43.351562 -41.289062 L 2.0625 -41.289062 L 2.0625 -33.03125 L 18.578125 -33.03125 L 18.578125 0 L 26.835938 0 L 26.835938 -33.03125 L 43.351562 -33.03125 Z M 43.351562 -41.289062" transform="translate(57.659 120.613)"/></g></g></g><g fill="#FFF"><g><g><path d="M 10.320312 -41.289062 C 5.78125 -41.289062 2.0625 -37.570312 2.0625 -33.03125 L 2.0625 0 L 10.320312 0 L 10.320312 -16.515625 L 35.09375 -16.515625 L 35.09375 0 L 43.351562 0 L 43.351562 -33.03125 C 43.351562 -37.570312 39.636719 -41.289062 35.09375 -41.289062 Z M 10.320312 -33.03125 L 35.09375 -33.03125 L 35.09375 -24.773438 L 10.320312 -24.773438 Z M 10.320312 -33.03125" transform="translate(111.228 120.613)"/></g></g></g><g fill="#FFF"><g><g><path d="M 43.351562 -41.289062 L 10.320312 -41.289062 C 5.78125 -41.289062 2.0625 -37.570312 2.0625 -33.03125 L 2.0625 -8.257812 C 2.0625 -3.714844 5.78125 0 10.320312 0 L 35.09375 0 C 39.6875 0 43.351562 -3.765625 43.351562 -8.257812 L 43.351562 -24.773438 L 18.578125 -24.773438 L 18.578125 -16.515625 L 35.09375 -16.515625 L 35.09375 -8.257812 L 10.320312 -8.257812 L 10.320312 -33.03125 L 43.351562 -33.03125 Z M 43.351562 -41.289062" transform="translate(164.796 120.613)"/></g></g></g><g fill="#FFF"><g><g><path d="M 43.351562 -33.03125 C 43.351562 -37.570312 39.636719 -41.289062 35.09375 -41.289062 L 2.0625 -41.289062 L 2.0625 0 L 10.320312 0 L 10.320312 -16.515625 L 15.171875 -16.515625 L 30.449219 -1.238281 C 31.273438 -0.414062 32.308594 0 33.441406 0 L 43.351562 0 L 43.351562 -8.257812 L 35.09375 -8.257812 L 26.835938 -16.515625 L 35.09375 -16.515625 C 39.636719 -16.515625 43.351562 -20.230469 43.351562 -24.773438 Z M 35.09375 -33.03125 L 35.09375 -24.773438 L 10.320312 -24.773438 L 10.320312 -33.03125 Z M 35.09375 -33.03125" transform="translate(218.365 120.613)"/></g></g></g><g fill="#FFF"><g><g><path d="M 10.320312 -41.289062 C 5.78125 -41.289062 2.0625 -37.570312 2.0625 -33.03125 L 2.0625 0 L 10.320312 0 L 10.320312 -16.515625 L 35.09375 -16.515625 L 35.09375 0 L 43.351562 0 L 43.351562 -33.03125 C 43.351562 -37.570312 39.636719 -41.289062 35.09375 -41.289062 Z M 10.320312 -33.03125 L 35.09375 -33.03125 L 35.09375 -24.773438 L 10.320312 -24.773438 Z M 10.320312 -33.03125" transform="translate(271.934 120.613)"/></g></g></g><g fill="#FFF"><g><g><path d="M 10.320312 -41.289062 C 5.78125 -41.289062 2.0625 -37.570312 2.0625 -33.03125 L 2.0625 0 L 10.320312 0 L 10.320312 -33.03125 L 18.578125 -33.03125 L 18.578125 0 L 26.835938 0 L 26.835938 -33.03125 L 35.09375 -33.03125 L 35.09375 0 L 43.351562 0 L 43.351562 -33.03125 C 43.351562 -37.570312 39.636719 -41.289062 35.09375 -41.289062 Z M 10.320312 -41.289062" transform="translate(325.502 120.613)"/></g></g></g></svg>